# xmcd
#
# Track frame offsets:
#	150
#	13745
#	26545
#	45544
#	62021
#	75436
#	91167
#	105564
#	124379
#	138078
#	150835
#	170314
#	183333
#	200819
#	215872
#	227763
#	245300
#	258602
#	272779
#	288296
#
# Disc length: 4069 seconds
#
# Revision: 0
# Processed by: cddbd v1.5.1PL0 Copyright (c) Steve Scherf et al.
# Submitted via: dBpowerAMP V4.0
#
DISCID=100fe314
DTITLE=Vários - Disco de Ouro Millenium
DYEAR=2005
DGENRE=Sertaneja
TTITLE0=Mata de Saudade - Felipe e Falcão
TTITLE1=Rodopiou - Rio Negro e Solimões
TTITLE2=Bem Simplesinho - Daniel
TTITLE3=Tradição Gaúcha - Chitãozinho e Xororó
TTITLE4=Pinga a Goela Abaixo - Rick e Renner
TTITLE5=Agora é só Alegria - Gino e Geno
TTITLE6=Apaixonado por Você - Ataíde e Alexandre
TTITLE7=Agora Aguenta Nós - Zezé di Camargo e Luciano
TTITLE8=Credo em Cruz Ave Maria - Bruno e Marrone
TTITLE9=Cai no Laço - Gian e Giovani
TTITLE10=Forró Bailão - Cezar e Paulinho
TTITLE11=Ta no pé Tá na Bota - Guilherme e Santiago
TTITLE12=Intimidade - Milionário e José Rico
TTITLE13=Água de Coco - Leandro e Leonardo
TTITLE14=Mulher Pimenta - Emílio e Eduardo
TTITLE15=Nóis Tropica mas Não Cai - Rick Renner
TTITLE16=O Bem Intencionado - Gino e Geno
TTITLE17=Tem que ser Agora - Felipe e Falcão
TTITLE18=A Solteirona - Teodoro e Sampaio
TTITLE19=Fera Mansa - Zezé di Camargo e Luciano
EXTD=
EXTT0=
EXTT1=
EXTT2=
EXTT3=
EXTT4=
EXTT5=
EXTT6=
EXTT7=
EXTT8=
EXTT9=
EXTT10=
EXTT11=
EXTT12=
EXTT13=
EXTT14=
EXTT15=
EXTT16=
EXTT17=
EXTT18=
EXTT19=
PLAYORDER=
